<?xml version="1.0" encoding="UTF-8"?><svg id="Camada_1" xmlns="http://www.w3.org/2000/svg" viewBox="0 0 512 512"><defs><style>.cls-1{fill:#fff;}.cls-2{fill:#fe504d;}</style></defs><rect class="cls-1" width="512" height="512"/><g><path class="cls-2" d="m35.88,331.5v25.22h53.81s12.15-.94,12.15,10.46c0,10.27-10.47,10.09-12.15,10.09h-53.81v24.29h53.81s14.2-.76,14.2,11.21c0,8.59-7.75,11.4-14.2,11.4h-53.81v25.23h57.02c5.13,0,10.24-.92,15-2.85,9.42-3.83,21.97-12.5,21.97-31.54,0-21.97-16.26-28.39-16.26-28.39,0,0,13.64-4.48,13.64-24.48s-14.95-30.64-37.56-30.64h-53.81Z"/><path class="cls-2" d="m117.35,449.4s46.76-85.51,62.41-113.98c1.31-2.39,2.71-5.42,9.47-5.42s7.79,3.09,9.03,5.42c15.79,29.65,61.43,113.98,61.43,113.98h-30.92l-40.24-74.8-40.74,74.8h-30.43Z"/><path class="cls-2" d="m260.38,425.29h76.79c10.93,0,18.93,0,18.93-10.9s-9.12-10.77-18.93-10.77h-51.94c-12.59,0-34.94-5.05-34.94-36.25,0-35.69,34.94-35.87,34.94-35.87h53.07s43.16.19,39.05,57.36c-6.54-9.9-17.93-12.71-25.97-14.2,0,0,1.03-17.87-12.8-17.87-14.76,0-50.36-.26-50.36-.26,0,0-12.15-.93-12.15,10.65s10.84,11.4,12.15,11.4c37.59,0,42.04.19,57.36.19,10.37,0,35.5,6.91,35.5,34.01,0,36.62-29.71,36.62-29.71,36.62h-91v-24.1Z"/><path class="cls-2" d="m476,331.59v25.22h-53.81s-12.15-.94-12.15,10.46c0,10.27,10.47,10.09,12.15,10.09h53.81v24.29h-53.81s-14.2-.76-14.2,11.21c0,8.59,7.75,11.4,14.2,11.4h53.81v25.23h-57.02c-5.13,0-10.24-.92-15-2.85-9.42-3.83-21.97-12.5-21.97-31.54,0-21.97,16.26-28.39,16.26-28.39,0,0-13.64-4.48-13.64-24.48s14.95-30.64,37.56-30.64h53.81Z"/></g></svg>